# xmcd
#
# Track frame offsets:
#  150
#  11265
#  22482
#  35867
#  49260
#  61495
#  73730
#  86870
#  99497
#  110970
#  122792
#  135892
#  147870
#  158337
#  171752
#  184150
#  196767
#  210380
#  220747
#  232807
#  244205
#  255755
#
# Disc length: 3558 seconds
#
# Revision: 0
# Processed by: cddbd v1.5.1PL0 Copyright (c) Steve Scherf et al.
# Submitted via: Collectorz.com Music Collector 6.9
#
DISCID=350de416
DTITLE=Brownie Mc Ghee - New York Blues 1946-1948
DYEAR=1900
DGENRE=
TTITLE0=Lovin' With A Feeling
TTITLE1=Rum Cola Papa
TTITLE2=Bad Blood
TTITLE3=Sportin' Life Blues
TTITLE4=Big Legged Woman
TTITLE5=Mean Ole Frisco
TTITLE6=I Don't Care
TTITLE7=Seaborn And Southern
TTITLE8=Worried Life Blues
TTITLE9=Evil But Kindhearted
TTITLE10=The Way I Feel
TTITLE11=Go On Blues
TTITLE12=Drinkin' Wine Spoo-Dee-O-Dee
TTITLE13=I'm Talking About It
TTITLE14=Aunt Jane Blues
TTITLE15=Poor Boy Blues
TTITLE16=Custard Pie Blues
TTITLE17=Robbie-Doby-Boogie
TTITLE18=My Fault
TTITLE19=Brownie's New Worried Life Blues
TTITLE20=I Was Fooled
TTITLE21=Confused
EXTD=
EXTT0=
EXTT1=
EXTT2=
EXTT3=
EXTT4=
EXTT5=
EXTT6=
EXTT7=
EXTT8=
EXTT9=
EXTT10=
EXTT11=
EXTT12=
EXTT13=
EXTT14=
EXTT15=
EXTT16=
EXTT17=
EXTT18=
EXTT19=
EXTT20=
EXTT21=
PLAYORDER=
